<?xml version="1.0" encoding="UTF-8" standalone="no"?>
<svg
   xmlns:dc="http://purl.org/dc/elements/1.1/"
   xmlns:cc="http://creativecommons.org/ns#"
   xmlns:rdf="http://www.w3.org/1999/02/22-rdf-syntax-ns#"
   xmlns:svg="http://www.w3.org/2000/svg"
   xmlns="http://www.w3.org/2000/svg"
   xmlns:sodipodi="http://sodipodi.sourceforge.net/DTD/sodipodi-0.dtd"
   xmlns:inkscape="http://www.inkscape.org/namespaces/inkscape"
   version="1.1"
   x="0px"
   y="0px"
   viewBox="0 0 90 58.868"
   enable-background="new 0 0 100 100"
   xml:space="preserve"
   id="svg12"
   sodipodi:docname="logo.svg"
   width="90"
   height="58.868"
   inkscape:version="0.92.3 (2405546, 2018-03-11)"><metadata
     id="metadata18"><rdf:RDF><cc:Work
         rdf:about=""><dc:format>image/svg+xml</dc:format><dc:type
           rdf:resource="http://purl.org/dc/dcmitype/StillImage" /><dc:title></dc:title></cc:Work></rdf:RDF></metadata><defs
     id="defs16" /><sodipodi:namedview
     pagecolor="#ffffff"
     bordercolor="#666666"
     borderopacity="1"
     objecttolerance="10"
     gridtolerance="10"
     guidetolerance="10"
     inkscape:pageopacity="0"
     inkscape:pageshadow="2"
     inkscape:window-width="2560"
     inkscape:window-height="1375"
     id="namedview14"
     showgrid="false"
     fit-margin-top="0"
     fit-margin-left="0"
     fit-margin-right="0"
     fit-margin-bottom="0"
     inkscape:zoom="1.888"
     inkscape:cx="45"
     inkscape:cy="16.934"
     inkscape:window-x="0"
     inkscape:window-y="28"
     inkscape:window-maximized="1"
     inkscape:current-layer="svg12" /><g
     id="g6"
     transform="translate(-5,-20.566)"><path
       d="m 82.628,45.279 v 7.824 c 0,2.992 -2.426,5.418 -5.418,5.418 H 22.79 c -2.992,0 -5.418,-2.426 -5.418,-5.418 v -7.824 c 0,-3.014 -2.444,-5.458 -5.458,-5.458 H 10.458 C 7.444,39.821 5,42.264 5,45.279 v 20.6 c 0,3.014 2.444,5.458 5.458,5.458 v 0 l 1.078,6.541 c 0.148,0.897 0.924,1.556 1.833,1.556 v 0 c 0.909,0 1.685,-0.658 1.833,-1.556 l 1.078,-6.541 h 67.44 l 1.078,6.541 c 0.148,0.897 0.924,1.556 1.833,1.556 v 0 c 0.909,0 1.685,-0.658 1.833,-1.556 l 1.078,-6.541 v 0 c 3.014,0 5.458,-2.444 5.458,-5.458 v -20.6 c 0,-3.014 -2.444,-5.458 -5.458,-5.458 h -1.456 c -3.014,0 -5.458,2.443 -5.458,5.458 z"
       id="path2"
       inkscape:connector-curvature="0" /><path
       d="m 22.789,56.52 c -1.887,0 -3.417,-1.53 -3.417,-3.417 v -7.824 c 0,-3.193 -1.999,-5.944 -4.872,-6.999 V 28.087 c 0,-4.154 3.367,-7.521 7.521,-7.521 H 77.98 c 4.153,0 7.52,3.367 7.52,7.52 V 38.28 c -2.873,1.055 -4.872,3.805 -4.872,6.999 v 7.823 c 0,1.888 -1.53,3.418 -3.418,3.418 z"
       id="path4"
       inkscape:connector-curvature="0" /></g></svg>