<?xml version="1.0" standalone="no"?>
<!DOCTYPE svg PUBLIC "-//W3C//DTD SVG 20010904//EN"
 "http://www.w3.org/TR/2001/REC-SVG-20010904/DTD/svg10.dtd">
<svg version="1.0" xmlns="http://www.w3.org/2000/svg"
 width="1808.000000pt" height="1808.000000pt" viewBox="0 0 1808.000000 1808.000000"
 preserveAspectRatio="xMidYMid meet">
<metadata>
Created by potrace 1.14, written by Peter Selinger 2001-2017
</metadata>
<g transform="translate(0.000000,1808.000000) scale(0.100000,-0.100000)"
fill="#000000" stroke="none">
<path d="M179 11753 c0 -154 0 -829 1 -850 0 -9 153 -12 666 -12 367 0 669 -2
671 -5 3 -3 4 -21 4 -40 -2 -50 -2 -55 1 -109 2 -26 1 -47 -2 -47 -4 0 -4
-106 0 -120 5 -16 4 -58 -2 -77 -4 -12 -4 -25 1 -27 4 -3 5 -25 1 -49 -3 -23
-3 -55 1 -70 4 -15 4 -27 -1 -27 -4 0 -4 -15 0 -34 4 -19 4 -40 -1 -47 -4 -7
-5 -17 -2 -22 3 -5 5 -53 4 -106 -2 -53 -2 -100 -2 -106 0 -15 1 -125 1 -162
-1 -18 0 -60 1 -92 1 -33 -1 -64 -5 -69 -3 -6 -2 -13 4 -17 6 -4 8 -10 5 -15
-3 -4 -5 -45 -4 -91 0 -46 -1 -93 -1 -104 -1 -11 -1 -27 -1 -35 3 -72 0 -193
-4 -200 -3 -5 1 -11 7 -13 9 -4 9 -6 2 -6 -8 -1 -9 -12 -4 -36 4 -20 4 -38 -1
-41 -5 -3 -6 -10 -3 -16 8 -13 7 -196 -1 -209 -4 -5 -3 -9 2 -9 4 0 8 -36 8
-80 0 -44 -4 -80 -8 -80 -5 0 -5 -5 -1 -11 3 -6 6 -41 5 -78 -2 -71 -2 -74 -1
-171 1 -36 1 -70 0 -75 -2 -6 -1 -14 0 -20 1 -5 2 -30 3 -55 l2 -45 2001 -3
2000 -2 0 1815 0 1815 -2673 0 -2673 0 -1 -147z"/>
<path d="M5839 11893 c-1 -10 -1 -3594 0 -3610 1 -10 649 -13 3204 -13 l3202
0 -3 203 c-1 111 -2 216 -1 232 0 17 1 71 0 120 -1 50 -1 101 0 115 0 14 0 68
0 120 -1 52 -1 109 0 125 1 17 1 71 0 120 -1 50 -1 104 0 120 1 17 1 431 0
920 -1 490 -1 904 0 920 1 24 0 119 -1 215 0 8 0 101 1 205 0 105 0 196 0 203
-1 9 -648 12 -3201 12 -1760 0 -3200 -3 -3201 -7z"/>
<path d="M12455 10085 l0 -1815 2047 2 c1127 2 2048 5 2048 8 1 3 5 22 9 43 5
20 6 39 2 41 -7 5 -5 121 2 133 2 4 1 17 -3 28 -4 11 -4 30 1 41 4 12 5 25 2
28 -8 8 -7 141 1 155 4 6 3 11 -2 11 -6 0 -7 14 -2 34 4 19 5 38 2 41 -7 7 -6
130 1 142 2 4 1 17 -3 28 -4 11 -4 30 1 41 4 12 5 25 2 28 -8 8 -7 141 1 155
4 6 3 11 -2 11 -6 0 -7 14 -2 34 4 19 5 37 2 40 -8 9 -8 156 1 156 4 0 4 8 -2
17 -5 10 -5 26 -1 39 5 12 6 25 3 28 -8 8 -7 141 1 155 4 6 3 11 -2 11 -6 0
-7 14 -2 34 4 19 5 37 2 40 -8 9 -8 156 1 156 4 0 4 8 -2 17 -5 10 -5 26 -1
39 5 12 6 25 3 28 -8 8 -7 141 1 155 4 6 3 11 -2 11 -6 0 -7 14 -2 34 4 19 5
37 2 40 -8 9 -8 186 0 186 4 0 4 10 0 23 -8 23 -7 91 2 114 3 7 2 13 -2 13 -7
0 -6 110 2 143 2 9 1 17 -2 17 -7 0 -5 110 2 117 2 2 304 4 670 4 l666 0 0
504 0 505 -2723 0 -2722 0 0 -1815z"/>
<path d="M2 8558 l3 -2053 9038 0 9037 0 0 2052 0 2053 -642 -2 -643 -3 0
-1227 0 -1228 -7755 0 -7755 0 0 1228 0 1227 -643 3 -642 2 2 -2052z"/>
<path d="M918 6314 c-2 -18 0 -42 4 -53 4 -11 3 -23 -1 -25 -5 -3 -6 -17 -3
-31 l4 -25 399 0 399 0 0 83 0 84 -399 0 -399 -1 -4 -32z"/>
<path d="M16360 6263 l0 -83 400 0 400 0 0 75 c0 41 1 78 3 83 1 4 -179 7
-400 8 l-403 1 0 -84z"/>
</g>
</svg>
