<?xml version="1.0" encoding="UTF-8" standalone="no"?>
<svg
   version="1.1"
   x="0px"
   y="0px"
   viewBox="0 0 72 72.000023"
   id="svg10"
   sodipodi:docname="add.svg"
   width="72"
   height="72.000023"
   inkscape:version="1.1 (ce6663b3b7, 2021-05-25)"
   xmlns:inkscape="http://www.inkscape.org/namespaces/inkscape"
   xmlns:sodipodi="http://sodipodi.sourceforge.net/DTD/sodipodi-0.dtd"
   xmlns="http://www.w3.org/2000/svg"
   xmlns:svg="http://www.w3.org/2000/svg">
  <defs
     id="defs14" />
  <sodipodi:namedview
     id="namedview12"
     pagecolor="#ffffff"
     bordercolor="#666666"
     borderopacity="1.0"
     inkscape:pageshadow="2"
     inkscape:pageopacity="0.0"
     inkscape:pagecheckerboard="0"
     showgrid="false"
     fit-margin-top="0"
     fit-margin-left="0"
     fit-margin-right="0"
     fit-margin-bottom="0"
     inkscape:zoom="3.348"
     inkscape:cx="-82.287933"
     inkscape:cy="12.246117"
     inkscape:window-width="1920"
     inkscape:window-height="1043"
     inkscape:window-x="1920"
     inkscape:window-y="0"
     inkscape:window-maximized="1"
     inkscape:current-layer="g4" />
  <g
     transform="translate(-14,-966.36218)"
     id="g4">
    <path
       style="color:#000000;text-indent:0;text-transform:none;direction:ltr;baseline-shift:baseline;enable-background:accumulate"
       d="m 50,966.36218 c -1.6568,0 -3,1.3432 -3,3 v 30.0001 H 17 c -1.6569,0 -3,1.34312 -3,3.00002 0,1.6568 1.3431,3 3,3 h 30 v 29.9999 c 0,1.6568 1.3432,3 3,3 1.6569,0 3,-1.3432 3,-3 v -29.9999 h 30 c 1.6569,0 3,-1.3432 3,-3 0,-1.6569 -1.3431,-3.00002 -3,-3.00002 H 53 v -30.0001 c 0,-1.6568 -1.3431,-3 -3,-3 z"
       fill="#000000"
       fill-opacity="1"
       stroke="none"
       marker="none"
       visibility="visible"
       display="inline"
       overflow="visible"
       id="path2" />
  </g>
</svg>
