<?xml version="1.0" encoding="UTF-8" standalone="no"?>
<svg
   xmlns:dc="http://purl.org/dc/elements/1.1/"
   xmlns:cc="http://creativecommons.org/ns#"
   xmlns:rdf="http://www.w3.org/1999/02/22-rdf-syntax-ns#"
   xmlns:svg="http://www.w3.org/2000/svg"
   xmlns="http://www.w3.org/2000/svg"
   xmlns:sodipodi="http://sodipodi.sourceforge.net/DTD/sodipodi-0.dtd"
   xmlns:inkscape="http://www.inkscape.org/namespaces/inkscape"
   version="1.1"
   x="0px"
   y="0px"
   viewBox="0 0 45.403999 47.139"
   enable-background="new 0 0 50 50"
   xml:space="preserve"
   id="svg34"
   sodipodi:docname="loading.svg"
   width="45.403999"
   height="47.139"
   inkscape:version="0.92.5 (2060ec1f9f, 2020-04-08)"><metadata
     id="metadata40"><rdf:RDF><cc:Work
         rdf:about=""><dc:format>image/svg+xml</dc:format><dc:type
           rdf:resource="http://purl.org/dc/dcmitype/StillImage" /><dc:title></dc:title></cc:Work></rdf:RDF></metadata><defs
     id="defs38" /><sodipodi:namedview
     pagecolor="#ffffff"
     bordercolor="#666666"
     borderopacity="1"
     objecttolerance="10"
     gridtolerance="10"
     guidetolerance="10"
     inkscape:pageopacity="0"
     inkscape:pageshadow="2"
     inkscape:window-width="2560"
     inkscape:window-height="1369"
     id="namedview36"
     showgrid="false"
     fit-margin-top="0"
     fit-margin-left="0"
     fit-margin-right="0"
     fit-margin-bottom="0"
     inkscape:zoom="3.776"
     inkscape:cx="22.966831"
     inkscape:cy="17.319"
     inkscape:window-x="0"
     inkscape:window-y="34"
     inkscape:window-maximized="1"
     inkscape:current-layer="svg34" /><g
     id="g28"
     transform="translate(-2.298,-1.43)"><g
       id="g26"><path
         d="m 33.921,7.762 c 0,0.945 0.761,1.711 1.699,1.711 0.932,0 1.691,-0.766 1.691,-1.711 0,-0.944 -0.76,-1.713 -1.691,-1.713 -0.938,0 -1.699,0.768 -1.699,1.713 z"
         id="path2"
         inkscape:connector-curvature="0"
         style="fill:#000000" /><path
         d="m 41.377,15.213 c 0,0.941 0.761,1.711 1.695,1.711 0.934,0 1.698,-0.77 1.698,-1.711 0,-0.945 -0.764,-1.714 -1.698,-1.714 -0.934,0 -1.695,0.769 -1.695,1.714 z"
         id="path4"
         inkscape:connector-curvature="0"
         style="fill:#000000" /><ellipse
         cx="45.868"
         cy="25.431"
         rx="1.834"
         ry="1.854"
         id="ellipse6"
         style="fill:#000000" /><ellipse
         cx="43.073002"
         cy="35.672001"
         rx="2.1860001"
         ry="2.21"
         id="ellipse8"
         style="fill:#000000" /><path
         d="m 33.433,43.215 c 0,1.219 0.979,2.213 2.188,2.213 1.205,0 2.184,-0.994 2.184,-2.213 0,-1.219 -0.979,-2.21 -2.184,-2.21 -1.21,0 -2.188,0.991 -2.188,2.21 z"
         id="path10"
         inkscape:connector-curvature="0"
         style="fill:#000000" /><path
         d="m 23.081,46.117 c 0,1.353 1.088,2.452 2.429,2.452 1.337,0 2.425,-1.1 2.425,-2.452 0,-1.355 -1.088,-2.451 -2.425,-2.451 -1.342,0 -2.429,1.096 -2.429,2.451 z"
         id="path12"
         inkscape:connector-curvature="0"
         style="fill:#000000" /><ellipse
         cx="15.369"
         cy="43.215"
         rx="2.4260001"
         ry="2.4549999"
         id="ellipse14"
         style="fill:#000000" /><path
         d="m 5.063,35.672 c 0,1.545 1.241,2.797 2.765,2.797 1.529,0 2.768,-1.252 2.768,-2.797 0,-1.539 -1.239,-2.791 -2.768,-2.791 -1.524,0 -2.765,1.252 -2.765,2.791 z"
         id="path16"
         inkscape:connector-curvature="0"
         style="fill:#000000" /><path
         d="m 2.298,25.431 c 0,1.542 1.239,2.794 2.765,2.794 1.529,0 2.765,-1.252 2.765,-2.794 0,-1.546 -1.236,-2.794 -2.765,-2.794 -1.526,0 -2.765,1.248 -2.765,2.794 z"
         id="path18"
         inkscape:connector-curvature="0"
         style="fill:#000000" /><path
         d="m 4.641,15.213 c 0,1.778 1.426,3.22 3.187,3.22 1.763,0 3.192,-1.441 3.192,-3.22 0,-1.781 -1.429,-3.226 -3.192,-3.226 -1.761,0 -3.187,1.445 -3.187,3.226 z"
         id="path20"
         inkscape:connector-curvature="0"
         style="fill:#000000" /><path
         d="m 12.18,7.762 c 0,1.781 1.427,3.224 3.189,3.224 1.76,0 3.191,-1.442 3.191,-3.224 0,-1.775 -1.432,-3.223 -3.191,-3.223 -1.762,0 -3.189,1.447 -3.189,3.223 z"
         id="path22"
         inkscape:connector-curvature="0"
         style="fill:#000000" /><path
         d="m 22.035,4.938 c 0,1.936 1.556,3.506 3.474,3.506 1.914,0 3.468,-1.57 3.468,-3.506 C 28.977,3 27.422,1.43 25.509,1.43 23.591,1.431 22.035,3 22.035,4.938 Z"
         id="path24"
         inkscape:connector-curvature="0"
         style="fill:#000000" /></g></g></svg>