<?xml version="1.0" encoding="UTF-8" standalone="no"?>
<svg
   data-name="Layer 1"
   width="881.49915"
   height="636.57245"
   viewBox="0 0 881.49914 636.57248"
   version="1.1"
   id="svg96"
   sodipodi:docname="products.svg"
   inkscape:version="1.1.1 (1:1.1+202109281949+c3084ef5ed)"
   xmlns:inkscape="http://www.inkscape.org/namespaces/inkscape"
   xmlns:sodipodi="http://sodipodi.sourceforge.net/DTD/sodipodi-0.dtd"
   xmlns="http://www.w3.org/2000/svg"
   xmlns:svg="http://www.w3.org/2000/svg"
   xmlns:rdf="http://www.w3.org/1999/02/22-rdf-syntax-ns#"
   xmlns:cc="http://creativecommons.org/ns#"
   xmlns:dc="http://purl.org/dc/elements/1.1/">
  <defs
     id="defs100" />
  <sodipodi:namedview
     id="namedview98"
     pagecolor="#ffffff"
     bordercolor="#666666"
     borderopacity="1.0"
     inkscape:pageshadow="2"
     inkscape:pageopacity="0.0"
     inkscape:pagecheckerboard="0"
     showgrid="false"
     fit-margin-top="0"
     fit-margin-left="0"
     fit-margin-right="0"
     fit-margin-bottom="0"
     inkscape:zoom="0.65742708"
     inkscape:cx="490.5487"
     inkscape:cy="129.29191"
     inkscape:window-width="1920"
     inkscape:window-height="1009"
     inkscape:window-x="0"
     inkscape:window-y="34"
     inkscape:window-maximized="1"
     inkscape:current-layer="svg96" />
  <title
     id="title2">product_photography</title>
  <path
     d="m 226.91852,371.45979 c 0,0 1.84982,36.99614 -77.07527,82.62469 0,0 -0.0937,0.20172 577.75625,0 0,0 -65.97642,-46.86175 -70.29264,-99.273"
     opacity="0.2"
     id="path4" />
  <path
     d="M 654.86342,345.01107 V 34.1302 a 17.34639,17.34639 0 0 0 12.99772,-16.791 v 0 A 17.33921,17.33921 0 0 0 650.52189,0 H 234.37984 a 17.33922,17.33922 0 0 0 -17.33925,17.3392 v 0 a 17.33925,17.33925 0 0 0 17.33925,17.33925 h 0.004 l -9.63432,310.60775 -77.3497,98.99783 c 0,0 -0.6503,0.002 577.75624,0 0,0 -0.40654,1.00217 -70.29264,-99.27296 z"
     fill="#e6e6e6"
     id="path6" />
  <ellipse
     cx="442.2626"
     cy="400.5881"
     rx="178.51062"
     ry="13.731592"
     opacity="0.2"
     id="ellipse8"
     style="stroke-width:1.40112" />
  <metadata
     id="metadata917">
    <rdf:RDF>
      <cc:Work
         rdf:about="">
        <dc:title>product_photography</dc:title>
      </cc:Work>
    </rdf:RDF>
  </metadata>
  <g
     id="g1991"
     transform="translate(805.06065,527.9214)">
    <g
       id="g3921"
       transform="matrix(0.67652216,0,0,0.67652216,-416.18044,-59.980531)">
      <path
         d="m -160.04265,-236.26581 h 453.90757 v -46.34135 c 0,-125.14229 -101.81149,-226.95378 -226.953783,-226.95378 -125.142292,0 -226.953787,101.81149 -226.953787,226.95378 z"
         fill="#3f3d56"
         id="path1874"
         style="stroke-width:0.865445;fill:#ff3636;fill-opacity:1" />
      <path
         d="m -160.04265,-236.26581 h 453.90757 v -46.34135 c 0,-125.14229 -101.81149,-226.95378 -226.95378,-226.95378 -125.14229,0 -226.95379,101.81149 -226.95379,226.95378 z"
         opacity="0.2"
         id="path1876"
         style="stroke-width:0.86606;stroke-miterlimit:10;stroke-dasharray:none" />
      <path
         d="m -101.21435,-220.22457 h 349.3216 a 70.185372,70.185372 0 0 0 -70.09569,-68.91787 H -31.118644 a 70.185372,70.185372 0 0 0 -70.095706,68.91787 z"
         fill="#ff3636"
         id="path1878"
         style="fill:#000000;fill-opacity:0.14703417;stroke-width:0.865445" />
      <circle
         cx="-142.81319"
         cy="-297.46014"
         r="70.10614"
         fill="#3f3d56"
         id="circle1880"
         style="stroke-width:0.865445;fill:#ff3636;fill-opacity:1" />
      <circle
         cx="282.57663"
         cy="-297.46014"
         r="70.10614"
         fill="#3f3d56"
         id="circle1882"
         style="stroke-width:0.865445;fill:#ff3636;fill-opacity:1" />
      <path
         d="m 229.69998,-261.81296 v 26.14127 H -94.095351 v -26.14127 h -72.482619 v 127.41299 a 29.434656,29.434656 0 0 0 29.43466,29.43465 h 409.89116 a 29.434656,29.434656 0 0 0 29.43475,-29.43465 v -127.41299 z"
         fill="#3f3d56"
         id="path1884"
         style="stroke-width:0.865445;fill:#ff3636;fill-opacity:1" />
      <circle
         cx="-142.81319"
         cy="-297.46014"
         r="14.258877"
         opacity="0.2"
         id="circle1886"
         style="stroke-width:0.865445" />
      <circle
         cx="282.57663"
         cy="-297.46014"
         r="14.258877"
         opacity="0.2"
         id="circle1888"
         style="stroke-width:0.865445" />
    </g>
  </g>
  <polygon
     points="655.046,33.925 234.38,34.679 654.864,46.925 "
     opacity="0.2"
     id="polygon10"
     transform="translate(-5.9711055e-4,-6.9999954e-5)" />
  <rect
     x="437.22519"
     y="76.518112"
     width="23.174919"
     height="4.7058301"
     rx="1.47923"
     fill="#e6e8ec"
     id="rect14" />
  <circle
     cx="466.57336"
     cy="78.871017"
     r="2.6691599"
     fill="#e6e8ec"
     id="circle16" />
  <path
     d="m 227.13352,46.18684 -62.07389,0.38555 c 0,0 -102.171367,54.36281 -30.45866,166.94408 0,0 29.302,-6.93994 61.68834,16.9643 0,0 18.89206,-180.05286 30.84421,-184.29393 z"
     fill="#ff3636"
     id="path28"
     style="fill:#2f2e41;fill-opacity:1" />
  <path
     d="m 208.66852,46.75037 c -11.12082,46.45358 -23.69259,166.2664 -23.69259,166.2664 -28.93492,-21.3567 -55.389,-18.09518 -60.70289,-17.15706 a 205.62807,205.62807 0 0 0 10.32794,18.1056 c 0,0 29.30193,-6.93995 61.68831,16.96429 0,0 18.892,-180.05284 30.84419,-184.29391 z"
     opacity="0.2"
     id="path30" />
  <polygon
     points="60.984,118.293 60.961,118.285 59.419,87.441 72.528,87.441 134.216,104.405 128.818,130.623 "
     fill="#3f3d56"
     id="polygon32"
     transform="translate(-5.9711055e-4,-6.9999954e-5)" />
  <polygon
     points="71.433,87.441 60.984,118.293 60.961,118.285 59.419,87.441 "
     opacity="0.2"
     id="polygon34"
     transform="translate(-5.9711055e-4,-6.9999954e-5)" />
  <ellipse
     cx="131.9021"
     cy="115.97177"
     rx="7.71104"
     ry="17.735399"
     fill="#3f3d56"
     id="ellipse36" />
  <path
     d="m 91.804723,490.77186 a 2.35677,2.35677 0 0 1 -2.357,-2.357 v -372.443 a 2.35695,2.35695 0 1 1 4.7139,0 v 372.443 a 2.35677,2.35677 0 0 1 -2.3569,2.357 z"
     fill="#3f3d56"
     id="path38" />
  <path
     d="m 124.1884,556.31628 a 2.35748,2.35748 0 0 1 -2.31046,-1.90581 L 89.491523,388.38258 a 2.35705,2.35705 0 0 1 4.2844,-1.74377 l 85.592297,130.55668 a 2.3572232,2.3572232 0 0 1 -3.94237,2.58529 L 96.416853,399.26599 126.50438,553.5082 a 2.35672,2.35672 0 0 1 -1.86208,2.76481 2.38952,2.38952 0 0 1 -0.4539,0.0433 z"
     fill="#3f3d56"
     id="path40" />
  <path
     d="M 2.3542729,527.01367 A 2.35706,2.35706 0 0 1 0.38539289,523.365 L 89.833533,386.88 a 2.35672,2.35672 0 0 1 3.94237,2.58344 l -89.4481401,136.485 a 2.35425,2.35425 0 0 1 -1.97349,1.06523 z"
     fill="#3f3d56"
     id="path42" />
  <path
     d="m 654.36552,46.18684 62.07389,0.38555 c 0,0 102.17137,54.36281 30.45866,166.94408 0,0 -29.302,-6.93994 -61.68834,16.9643 0,0 -18.89206,-180.05286 -30.84421,-184.29393 z"
     fill="#ff3636"
     id="path44"
     style="fill:#2f2e41;fill-opacity:1" />
  <path
     d="m 672.83052,46.75037 c 11.12082,46.45358 23.69259,166.2664 23.69259,166.2664 28.93492,-21.3567 55.389,-18.09518 60.70289,-17.15706 a 205.62807,205.62807 0 0 1 -10.32794,18.1056 c 0,0 -29.30193,-6.93995 -61.68831,16.96429 0,0 -18.892,-180.05284 -30.84419,-184.29391 z"
     opacity="0.2"
     id="path46" />
  <polygon
     points="820.516,118.293 820.539,118.285 822.081,87.441 808.973,87.441 747.284,104.405 752.682,130.623 "
     fill="#3f3d56"
     id="polygon48"
     transform="translate(-5.9711055e-4,-6.9999954e-5)" />
  <polygon
     points="810.067,87.441 820.516,118.293 820.539,118.285 822.081,87.441 "
     opacity="0.2"
     id="polygon50"
     transform="translate(-5.9711055e-4,-6.9999954e-5)" />
  <ellipse
     cx="749.59692"
     cy="115.97177"
     rx="7.71104"
     ry="17.735399"
     fill="#3f3d56"
     id="ellipse52" />
  <path
     d="m 789.69432,490.77186 a 2.35677,2.35677 0 0 1 -2.35695,-2.357 v -372.443 a 2.35695,2.35695 0 1 1 4.7139,0 v 372.443 a 2.35677,2.35677 0 0 1 -2.35695,2.357 z"
     fill="#3f3d56"
     id="path54" />
  <path
     d="m 757.3111,556.31628 a 2.38246,2.38246 0 0 1 -0.4539,-0.0433 2.35772,2.35772 0 0 1 -1.86254,-2.76481 l 30.087,-154.24313 -79.0085,120.51571 a 2.3572232,2.3572232 0 1 1 -3.94237,-2.58529 l 85.59232,-130.55668 a 2.35733,2.35733 0 0 1 4.28486,1.74377 l -32.386,166.02789 a 2.35834,2.35834 0 0 1 -2.31087,1.90581 z"
     fill="#3f3d56"
     id="path56" />
  <path
     d="m 879.14432,527.01367 a 2.35346,2.35346 0 0 1 -1.973,-1.06523 l -89.44815,-136.485 a 2.35672,2.35672 0 0 1 3.94237,-2.58344 l 89.44818,136.485 a 2.35705,2.35705 0 0 1 -1.9694,3.64867 z"
     fill="#3f3d56"
     id="path58" />
  <path
     d="m 387.02657,327.2882 16.88725,-4.70176 c 0,0 6.61464,-1.32049 2.5729,-14.239 -4.04174,-12.91851 -12.05785,-9.303 -12.05785,-9.303 l -14.98069,4.35227 -5.9145,1.82653 8.32195,11.675 0.69757,7.78162 z"
     fill="#3f3d56"
     id="path60" />
  <polygon
     points="378.516,299.856 372.407,301.138 367.507,296.273 370.814,294.951 371.126,293.706 367.12,290.553 354.396,293.155 349.098,314.319 376.245,340.629 378.579,341.214 384.805,339.465 390.104,318.302 384.737,312.658 390.223,311.221 "
     fill="#3f3d56"
     id="polygon62"
     transform="translate(-5.9711055e-4,-6.9999954e-5)" />
  <polygon
     points="379.831,323.006 376.324,337.011 360.144,321.715 364.196,307.515 "
     fill="#ff3636"
     id="polygon64"
     transform="translate(-5.9711055e-4,-6.9999954e-5)"
     style="fill:#3f3d56;fill-opacity:1" />
  <polygon
     points="390.223,311.221 378.516,299.856 372.407,301.138 367.507,296.273 370.814,294.951 371.126,293.706 367.12,290.553 354.396,293.155 353.653,296.123 380.648,322.384 382.982,322.968 389.014,321.336 389.346,321.329 390.104,318.302 384.737,312.658 "
     fill="none"
     stroke="#3f3d56"
     stroke-miterlimit="10"
     id="polygon66"
     transform="translate(-5.9711055e-4,-6.9999954e-5)" />
  <ellipse
     cx="-195.01334"
     cy="427.01648"
     rx="1.52396"
     ry="2.2458401"
     transform="rotate(-75.94348)"
     fill="#ff3636"
     id="ellipse68" />
  <ellipse
     cx="-212.81967"
     cy="449.15405"
     rx="1.52396"
     ry="2.2458401"
     transform="rotate(-75.94348)"
     fill="#ff3636"
     id="ellipse70" />
  <path
     d="m 398.24664,353.6522 -3.68271,-12.52121 c 0,0 9.575,-22.83278 -1.47308,-25.04241 -11.04808,-2.20963 -11.78467,21.35971 -11.78467,21.35971 l 4.41925,13.99428 z"
     fill="#ffb6b6"
     id="path72" />
  <circle
     cx="329.87225"
     cy="300.04874"
     r="29.257469"
     fill="#ffb6b6"
     id="circle74" />
  <path
     d="m 339.3379,320.70105 c 0,0 1.721,21.51285 6.0236,23.23387 4.3026,1.72102 -46.46774,13.76828 -46.46774,13.76828 l 12.9077,-14.62874 c 0,0 2.58155,-22.37336 -3.442,-27.53644 z"
     fill="#ffb6b6"
     id="path76" />
  <path
     d="m 380.56964,347.02329 11.78466,-1.47308 c 0,0 13.99429,7.36542 13.99429,16.94045 0,9.57503 8.102,25.04241 8.102,25.04241 0,0 5.89233,20.62317 -7.36542,22.09625 -13.25775,1.47308 -25.04241,-22.09625 -25.04241,-22.09625 z"
     fill="#ff3636"
     id="path78"
     style="fill:#3f3d56;fill-opacity:1" />
  <path
     d="m 387.19852,464.13339 c 0,0 25.779,-24.30587 33.14437,-22.83279 7.36537,1.47308 22.09624,3.68271 22.09624,14.73083 0,11.04812 -24.30586,36.82707 -24.30586,36.82707 0,0 -18.41354,40.50978 -36.09054,41.98287 a 305.05046,305.05046 0 0 0 -34.61744,5.15579 c 0,0 8.10195,29.46165 3.6827,37.56361 -4.41925,8.10196 -21.3597,17.677 -22.83278,16.94045 -1.47308,-0.73655 -22.09625,-19.88662 -30.93474,-47.13865 -8.83849,-27.25203 -14.73083,-47.87519 -6.62888,-49.34828 8.10195,-1.47309 96.48693,-33.8809 96.48693,-33.8809 z"
     fill="#2f2e41"
     id="path80" />
  <path
     d="m 440.22952,453.82181 c 0,0 5.15579,-0.73655 4.41925,11.78466 -0.73654,12.52121 -2.94617,57.45023 -6.62888,66.28873 -3.68271,8.8385 -4.41924,19.15008 -2.94616,22.83278 1.47308,3.6827 4.41925,9.575 -0.73654,10.31159 -5.15579,0.73659 -26.51549,-2.20963 -28.72512,-2.94617 -2.20963,-0.73654 -4.41925,-13.25775 -2.94617,-13.25775 1.47308,0 5.1558,-0.73654 3.68271,-5.89233 -1.47309,-5.15579 -2.20962,-5.15579 0,-6.62887 2.20962,-1.47308 8.102,-3.68271 6.62888,-5.15579 -1.47312,-1.47308 -2.94617,-36.09053 -2.94617,-36.09053 z"
     fill="#2f2e41"
     id="path82" />
  <path
     d="m 432.86408,562.82994 c 0,0 12.52121,-3.68271 13.99429,4.41925 0,0 2.20963,12.5212 -7.36541,16.94045 a 118.32886,118.32886 0 0 0 -17.677,10.31158 c 0,0 -15.46737,5.89234 -16.20391,-1.47308 -0.73654,-7.36542 2.94617,-33.88094 2.94617,-33.88094 z"
     fill="#2f2e41"
     id="path84" />
  <path
     d="m 349.6349,571.66844 -23.56933,-19.15008 c 0,0 4.41925,23.56933 -1.47308,27.98858 l -2.69154,7.86887 7.53706,6.16543 c 0,0 23.14306,-3.72272 20.19689,-22.8728 z"
     fill="#2f2e41"
     id="path86" />
  <path
     d="m 316.49052,539.26061 c 0,0 15.46738,4.41925 13.25775,19.88662 -2.20963,15.46737 -5.0427,32.27154 -5.0427,32.27154 0,0 -0.84963,41.38261 -11.89775,44.32877 -11.04812,2.94616 -13.99429,-2.94616 -13.99429,-2.94616 0,0 -12.55861,-32.33761 -8.8385,-41.98286 4.503,-11.67475 10.99166,-24.78374 8.8385,-28.72512 -2.11863,-3.87826 1.47309,-25.04241 17.67699,-22.83279 z"
     fill="#2f2e41"
     id="path88" />
  <path
     d="m 307.65204,335.9752 c 0,0 5.89233,0.73654 15.46737,2.20963 9.57504,1.47309 16.20391,-5.89233 21.3597,-4.41925 5.15579,1.47308 47.87519,11.78462 47.87519,11.78462 l -6.62887,50.82136 c 0,0 8.102,58.92332 6.62887,69.2349 -1.47313,10.31158 17.677,8.8385 6.62888,21.3597 -11.04812,12.5212 -30.1982,23.56933 -69.2349,19.88662 -39.0367,-3.68271 -44.19249,-2.94617 -44.19249,-8.8385 0,-5.89233 8.8385,-55.97715 5.89234,-60.3964 -2.94616,-4.41925 -8.8385,-9.575 -5.89234,-14.73083 2.94616,-5.15583 5.89234,-8.10195 1.47309,-12.5212 -4.41925,-4.41925 -6.62888,-8.8385 -6.62888,-11.04812 0,-2.20962 -10.31158,-38.30016 -10.31158,-38.30016 0,0 4.41925,-17.677 9.575,-18.41353 5.15575,-0.73653 9.575,-4.41925 13.25775,-4.41925 3.68275,0 5.89233,0.73654 8.10195,0 z"
     fill="#ff3636"
     id="path90"
     style="fill:#3f3d56;fill-opacity:1" />
  <path
     d="m 378.28325,289.78686 c -0.3789,-1.70244 -2.23382,-7.394 -6.005,-8.78258 -2.75915,-1.01592 -7.893,1.1306 -10.45,0.77452 l -0.32964,-0.93652 a 21.25135,21.25135 0 0 0 -1.36723,-5.37631 27.51307,27.51307 0 0 0 -15.09492,-15.38677 c -8.42185,-3.52064 -21.743,-6.43171 -33.30044,2.7935 -15.87479,12.67135 -13.07748,31.63221 -11.924,36.893 q 0.28866,1.31635 0.49457,2.64938 c 0.71141,4.634 2.76165,5.18683 2.76165,5.18683 0,0 -0.0442,-0.13353 -0.11624,-0.37719 l 14.33856,1.39577 7.75206,-1.323 c 0.12968,0.7581 0.18,1.20626 0.18,1.20626 22.62147,-3.45775 35.78554,-15.373 37.92333,-17.43929 1.87926,1.24589 5.3793,3.2803 8.77353,3.7266 4.9711,0.65359 6.74268,-3.30177 6.36377,-5.0042 z m -58.28673,11.39173 -18.21615,-0.66259 c -0.25824,-4.97225 1.02581,-10.78653 8.34792,-11.08323 7.05976,-0.28607 10.91322,5.45367 12.95533,10.70894 z"
     fill="#2f2e41"
     id="path92" />
  <ellipse
     cx="276.61215"
     cy="308.39163"
     rx="3.2225499"
     ry="1.21934"
     transform="rotate(-9.68516)"
     fill="#2f2e41"
     id="ellipse94" />
</svg>
