<?xml version="1.0" encoding="UTF-8" standalone="no"?>
<svg
   xmlns:dc="http://purl.org/dc/elements/1.1/"
   xmlns:cc="http://creativecommons.org/ns#"
   xmlns:rdf="http://www.w3.org/1999/02/22-rdf-syntax-ns#"
   xmlns:svg="http://www.w3.org/2000/svg"
   xmlns="http://www.w3.org/2000/svg"
   xmlns:sodipodi="http://sodipodi.sourceforge.net/DTD/sodipodi-0.dtd"
   xmlns:inkscape="http://www.inkscape.org/namespaces/inkscape"
   viewBox="0 0 71 80.010063"
   x="0px"
   y="0px"
   version="1.1"
   id="svg12"
   sodipodi:docname="upload.svg"
   width="71"
   height="80.010063"
   inkscape:version="0.92.3 (2405546, 2018-03-11)">
  <metadata
     id="metadata18">
    <rdf:RDF>
      <cc:Work
         rdf:about="">
        <dc:format>image/svg+xml</dc:format>
        <dc:type
           rdf:resource="http://purl.org/dc/dcmitype/StillImage" />
        <dc:title>18 Upload, Arrow, Storage</dc:title>
      </cc:Work>
    </rdf:RDF>
  </metadata>
  <defs
     id="defs16" />
  <sodipodi:namedview
     pagecolor="#ffffff"
     bordercolor="#666666"
     borderopacity="1"
     objecttolerance="10"
     gridtolerance="10"
     guidetolerance="10"
     inkscape:pageopacity="0"
     inkscape:pageshadow="2"
     inkscape:window-width="1920"
     inkscape:window-height="981"
     id="namedview14"
     showgrid="false"
     fit-margin-top="0"
     fit-margin-left="0"
     fit-margin-right="0"
     fit-margin-bottom="0"
     inkscape:zoom="1.9666667"
     inkscape:cx="34"
     inkscape:cy="28.25"
     inkscape:window-x="0"
     inkscape:window-y="28"
     inkscape:window-maximized="1"
     inkscape:current-layer="svg12" />
  <title
     id="title2">18 Upload, Arrow, Storage</title>
  <g
     data-name="18 Upload, Arrow, Storage"
     id="g6"
     transform="translate(-14,-8.2399342)">
    <path
       d="m 27.65,28 -1.3,-1.52 21,-18 a 1,1 0 0 1 1.3,0 l 21,18 L 68.35,28 49,11.42 V 72.25 H 47 V 11.42 Z M 83,57.25 v 24 a 5,5 0 0 1 -5,5 H 21 a 5,5 0 0 1 -5,-5 v -24 h -2 v 24 a 7,7 0 0 0 7,7 h 57 a 7,7 0 0 0 7,-7 v -24 z"
       id="path4"
       inkscape:connector-curvature="0" />
  </g>
</svg>
